<svg width="24" height="17" viewBox="0 0 24 17" fill="none" xmlns="http://www.w3.org/2000/svg">
<path d="M22.5 0H1.5C1.10218 0 0.720644 0.158035 0.43934 0.43934C0.158035 0.720644 0 1.10218 0 1.5L0 15C0 15.3978 0.158035 15.7794 0.43934 16.0607C0.720644 16.342 1.10218 16.5 1.5 16.5H22.5C22.8978 16.5 23.2794 16.342 23.5607 16.0607C23.842 15.7794 24 15.3978 24 15V1.5C24 1.10218 23.842 0.720644 23.5607 0.43934C23.2794 0.158035 22.8978 0 22.5 0ZM1.5 1.5H22.5V15H1.5V1.5ZM20.3745 7.5H11.25C11.0511 7.5 10.8603 7.57902 10.7197 7.71967C10.579 7.86032 10.5 8.05109 10.5 8.25C10.5 8.44891 10.579 8.63968 10.7197 8.78033C10.8603 8.92098 11.0511 9 11.25 9H20.3745C20.5734 9 20.7642 8.92098 20.9048 8.78033C21.0455 8.63968 21.1245 8.44891 21.1245 8.25C21.1245 8.05109 21.0455 7.86032 20.9048 7.71967C20.7642 7.57902 20.5734 7.5 20.3745 7.5ZM20.3745 10.5H11.25C11.0511 10.5 10.8603 10.579 10.7197 10.7197C10.579 10.8603 10.5 11.0511 10.5 11.25C10.5 11.4489 10.579 11.6397 10.7197 11.7803C10.8603 11.921 11.0511 12 11.25 12H20.3745C20.5734 12 20.7642 11.921 20.9048 11.7803C21.0455 11.6397 21.1245 11.4489 21.1245 11.25C21.1245 11.0511 21.0455 10.8603 20.9048 10.7197C20.7642 10.579 20.5734 10.5 20.3745 10.5ZM20.3745 4.5H11.25C11.0511 4.5 10.8603 4.57902 10.7197 4.71967C10.579 4.86032 10.5 5.05109 10.5 5.25C10.5 5.44891 10.579 5.63968 10.7197 5.78033C10.8603 5.92098 11.0511 6 11.25 6H20.3745C20.5734 6 20.7642 5.92098 20.9048 5.78033C21.0455 5.63968 21.1245 5.44891 21.1245 5.25C21.1245 5.05109 21.0455 4.86032 20.9048 4.71967C20.7642 4.57902 20.5734 4.5 20.3745 4.5Z" fill="#828282"/>
<path d="M8.33333 6.41304C8.33333 5.35913 7.51 4.5 6.5 4.5C5.49 4.5 4.66667 5.35913 4.66667 6.41304C4.66667 7.46696 5.49 8.32609 6.5 8.32609C7.51 8.32609 8.33333 7.46696 8.33333 6.41304ZM5.66667 6.41304C5.66667 5.93304 6.04 5.54348 6.5 5.54348C6.96 5.54348 7.33333 5.93304 7.33333 6.41304C7.33333 6.89304 6.96 7.28261 6.5 7.28261C6.04 7.28261 5.66667 6.89304 5.66667 6.41304ZM8.5 12.5C8.77667 12.5 9 12.267 9 11.9783V10.587C9 9.53304 8.17667 8.67391 7.16667 8.67391H5.83333C4.82333 8.67391 4 9.53304 4 10.587V11.9783C4 12.267 4.22333 12.5 4.5 12.5H8.5ZM5 10.587C5 10.107 5.37333 9.71739 5.83333 9.71739H7.16667C7.62667 9.71739 8 10.107 8 10.587V11.4565H5V10.587Z" fill="#828282"/>
</svg>
