<svg width="14" height="14" viewBox="0 0 14 14" fill="none" xmlns="http://www.w3.org/2000/svg">
<path fill-rule="evenodd" clip-rule="evenodd" d="M11.7487 7.62361C11.7727 7.42361 11.7887 7.21561 11.7887 6.99961C11.7887 6.78361 11.7727 6.57561 11.7407 6.37561L13.0927 5.31961C13.2127 5.22361 13.2447 5.04761 13.1727 4.91161L11.8927 2.69561C11.8127 2.55161 11.6447 2.50361 11.5007 2.55161L9.90868 3.19161C9.57268 2.93561 9.22068 2.72761 8.82868 2.56761L8.58868 0.871609C8.56468 0.711609 8.42868 0.599609 8.26868 0.599609H5.70868C5.54868 0.599609 5.42068 0.711609 5.39668 0.871609L5.15668 2.56761C4.76468 2.72761 4.40468 2.94361 4.07668 3.19161L2.48468 2.55161C2.34068 2.49561 2.17268 2.55161 2.09268 2.69561L0.812678 4.91161C0.732678 5.05561 0.764678 5.22361 0.892678 5.31961L2.24468 6.37561C2.21268 6.57561 2.18868 6.79161 2.18868 6.99961C2.18868 7.20761 2.20468 7.42361 2.23668 7.62361L0.884678 8.67961C0.764678 8.77561 0.732678 8.95161 0.804678 9.08761L2.08468 11.3036C2.16468 11.4476 2.33268 11.4956 2.47668 11.4476L4.06868 10.8076C4.40468 11.0636 4.75668 11.2716 5.14868 11.4316L5.38868 13.1276C5.42068 13.2876 5.54868 13.3996 5.70868 13.3996H8.26868C8.42868 13.3996 8.56468 13.2876 8.58068 13.1276L8.82068 11.4316C9.21268 11.2716 9.57268 11.0556 9.90068 10.8076L11.4927 11.4476C11.6367 11.5036 11.8047 11.4476 11.8847 11.3036L13.1647 9.08761C13.2447 8.94361 13.2127 8.77561 13.0847 8.67961L11.7487 7.62361V7.62361ZM6.98868 9.39961C5.66868 9.39961 4.58868 8.31961 4.58868 6.99961C4.58868 5.67961 5.66868 4.59961 6.98868 4.59961C8.30868 4.59961 9.38868 5.67961 9.38868 6.99961C9.38868 8.31961 8.30868 9.39961 6.98868 9.39961Z" fill="#018786"/>
</svg>
