<svg width="53" height="50" viewBox="0 0 53 50" fill="none" xmlns="http://www.w3.org/2000/svg">
<path d="M12.125 20.833L15.6667 11.083C16.2708 9.43717 17.8333 8.33301 19.5833 8.33301H25V12.4997H19.5833L16.5417 20.833H26.5625L27.3125 18.7497H25V14.583H35.4167V18.7497H31.7708L27.9792 29.1663H29.375C30.2917 24.5205 34.1875 21.083 39.0625 20.8538C44.8958 20.5622 50 25.4163 50 31.2497C50 37.083 45.4167 41.6663 39.5833 41.6663C34.4583 41.6663 30.3125 38.1455 29.375 33.333H20.625C19.7083 37.9788 15.8125 41.4163 10.9375 41.6455C5.10417 41.9163 0 37.083 0 31.2288C0 25.3955 4.58334 20.8122 10.4167 20.8122H12.125V20.833ZM33.7083 33.333C34.5417 35.7705 36.8125 37.4997 39.5833 37.4997C43.0833 37.4997 45.8333 34.7497 45.8333 31.2497C45.8333 27.7497 43.0833 24.9997 39.5833 24.9997C36.8125 24.9997 34.5417 26.7288 33.7083 29.1663H39.5833V33.333H33.7083ZM20.625 29.1663H23.5417L25.0625 24.9997H18.75C19.6667 26.208 20.3333 27.6038 20.625 29.1663ZM10.4167 37.4997C13.9167 37.4997 16.6667 34.7497 16.6667 31.2497C16.6667 29.3122 15.8125 27.6455 14.4792 26.4997L12.4792 31.9997L8.5625 30.583L10.5833 25.0205C10.5208 25.0205 10.4583 24.9997 10.3958 24.9997C6.89584 24.9997 4.14584 27.7497 4.14584 31.2497C4.14584 34.7497 6.91667 37.4997 10.4167 37.4997Z" fill="#515151"/>
<path d="M38.3007 4.85642C41.0998 4.65833 43.9428 5.58398 46.0641 7.68958C49.4248 11.0254 49.8969 16.1749 47.5272 20.0878L45.999 19.3391C48.0557 16.0516 47.6883 11.7022 44.8639 8.89871C43.0644 7.11249 40.6513 6.34957 38.2947 6.55477L38.2756 11.9608L32.3169 6.04617L38.3178 0.000561028L38.3007 4.85642Z" fill="#05A660"/>
</svg>
