<svg width="53" height="50" viewBox="0 0 53 50" fill="none" xmlns="http://www.w3.org/2000/svg">
<path d="M40.875 20.833L37.3333 11.083C36.7292 9.43717 35.1667 8.33301 33.4167 8.33301H28V12.4997H33.4167L36.4583 20.833H26.4375L25.6875 18.7497H28V14.583H17.5833V18.7497H21.2292L25.0208 29.1663H23.625C22.7083 24.5205 18.8125 21.083 13.9375 20.8538C8.10417 20.5622 3 25.4163 3 31.2497C3 37.083 7.58333 41.6663 13.4167 41.6663C18.5417 41.6663 22.6875 38.1455 23.625 33.333H32.375C33.2917 37.9788 37.1875 41.4163 42.0625 41.6455C47.8958 41.9163 53 37.083 53 31.2288C53 25.3955 48.4167 20.8122 42.5833 20.8122H40.875V20.833ZM19.2917 33.333C18.4583 35.7705 16.1875 37.4997 13.4167 37.4997C9.91667 37.4997 7.16667 34.7497 7.16667 31.2497C7.16667 27.7497 9.91667 24.9997 13.4167 24.9997C16.1875 24.9997 18.4583 26.7288 19.2917 29.1663H13.4167V33.333H19.2917ZM32.375 29.1663H29.4583L27.9375 24.9997H34.25C33.3333 26.208 32.6667 27.6038 32.375 29.1663ZM42.5833 37.4997C39.0833 37.4997 36.3333 34.7497 36.3333 31.2497C36.3333 29.3122 37.1875 27.6455 38.5208 26.4997L40.5208 31.9997L44.4375 30.583L42.4167 25.0205C42.4792 25.0205 42.5417 24.9997 42.6042 24.9997C46.1042 24.9997 48.8542 27.7497 48.8542 31.2497C48.8542 34.7497 46.0833 37.4997 42.5833 37.4997Z" fill="#515151"/>
<path d="M14.664 5.35517L15.2012 5.39319L15.1993 4.85465L15.1865 1.21836L19.976 6.04354L15.2202 10.7642L15.2053 6.55301L15.2037 6.09627L14.7487 6.05666C12.2562 5.83963 9.69515 6.64667 7.78385 8.54384C4.92078 11.3857 4.44275 15.7158 6.29812 19.1267L5.67324 19.4328C3.68004 15.7632 4.21058 11.0993 7.28814 8.04445C9.29942 6.04803 11.9977 5.16648 14.664 5.35517Z" fill="#FFCC00" stroke="#FFCC00"/>
</svg>
