<svg width="16" height="4" viewBox="0 0 16 4" fill="none" xmlns="http://www.w3.org/2000/svg">
<path fill-rule="evenodd" clip-rule="evenodd" d="M0.5 2.00004C0.5 1.08337 1.25 0.333374 2.16667 0.333374C3.08333 0.333374 3.83333 1.08337 3.83333 2.00004C3.83333 2.91671 3.08333 3.66671 2.16667 3.66671C1.25 3.66671 0.5 2.91671 0.5 2.00004ZM9.66667 2.00004C9.66667 2.91671 8.91667 3.66671 8 3.66671C7.08333 3.66671 6.33333 2.91671 6.33333 2.00004C6.33333 1.08337 7.08333 0.333374 8 0.333374C8.91667 0.333374 9.66667 1.08337 9.66667 2.00004ZM13.8333 0.333374C12.9167 0.333374 12.1667 1.08337 12.1667 2.00004C12.1667 2.91671 12.9167 3.66671 13.8333 3.66671C14.75 3.66671 15.5 2.91671 15.5 2.00004C15.5 1.08337 14.75 0.333374 13.8333 0.333374Z" fill="#515151"/>
</svg>
